<!--https://danmarshall.github.io/google-font-to-svg-path/-->
<svg width="286.201" height="139.502" viewBox="0 0 286.201 139.502" xmlns="http://www.w3.org/2000/svg"><g id="svgGroup" stroke-linecap="round" fill-rule="evenodd" font-size="9pt" stroke="currentColor" stroke-width="0.25mm" fill="currentColor" style="stroke:white;stroke-width:0.25mm;fill:white"><path d="M 107.501 81.202 L 107.001 73.902 Q 104.446 80.825 102.332 85.031 A 44.648 44.648 0 0 1 101.451 86.702 A 31.165 31.165 0 0 1 99.996 89.076 Q 98.425 91.384 96.854 92.581 A 8.414 8.414 0 0 1 96.551 92.802 A 9.534 9.534 0 0 1 91.91 94.452 A 12.022 12.022 0 0 1 90.801 94.502 Q 86.738 94.502 84.394 91.36 A 9.49 9.49 0 0 1 84.351 91.302 A 11.492 11.492 0 0 1 82.956 88.7 Q 81.914 86.054 81.489 82.106 A 44.155 44.155 0 0 1 81.401 81.202 A 379.934 379.934 0 0 1 80.67 71.194 Q 80.377 66.238 80.267 61.816 A 206.121 206.121 0 0 1 80.201 56.702 L 80.201 53.202 Q 80.301 49.902 82.001 48.602 A 5.431 5.431 0 0 1 83.588 47.785 Q 84.348 47.53 85.283 47.41 A 14.283 14.283 0 0 1 87.101 47.302 A 9.341 9.341 0 0 1 88.508 47.401 Q 90.067 47.639 90.951 48.452 A 3.358 3.358 0 0 1 91.783 49.698 Q 92.004 50.25 92.108 50.947 A 9.201 9.201 0 0 1 92.201 52.302 A 246.872 246.872 0 0 0 92.338 60.163 Q 92.634 69.403 93.571 81.801 A 774.738 774.738 0 0 0 93.601 82.202 Q 100.401 67.902 106.101 52.402 A 14.885 14.885 0 0 1 106.755 50.869 Q 107.637 49.107 108.751 48.352 A 6.027 6.027 0 0 1 111.174 47.407 A 8.071 8.071 0 0 1 112.501 47.302 A 10.405 10.405 0 0 1 113.783 47.375 Q 115.158 47.546 115.93 48.12 A 2.513 2.513 0 0 1 116.251 48.402 A 3.029 3.029 0 0 1 116.849 49.359 Q 117.301 50.464 117.301 52.302 A 246.872 246.872 0 0 0 117.438 60.163 Q 117.734 69.403 118.671 81.801 A 774.738 774.738 0 0 0 118.701 82.202 Q 123.646 74.866 126.554 69.976 A 107.385 107.385 0 0 0 127.701 68.002 A 12.999 12.999 0 0 1 126.488 64.391 A 17.937 17.937 0 0 1 126.201 61.102 Q 126.201 57.702 127.701 54.502 A 14.381 14.381 0 0 1 130.248 50.706 A 13.143 13.143 0 0 1 131.801 49.302 Q 134.401 47.302 137.701 47.302 A 6.656 6.656 0 0 1 140.009 47.687 A 5.819 5.819 0 0 1 142.401 49.352 Q 144.201 51.402 144.201 55.302 A 20.519 20.519 0 0 1 143.774 59.33 Q 143.39 61.245 142.66 63.348 A 41.389 41.389 0 0 1 141.801 65.602 A 40.387 40.387 0 0 0 144.42 65.369 Q 147.127 65.048 150.706 64.343 A 136.123 136.123 0 0 0 151.252 64.234 A 81.944 81.944 0 0 1 153.345 54.838 A 76.942 76.942 0 0 1 153.901 53.002 A 9.683 9.683 0 0 1 154.738 51.045 A 6.654 6.654 0 0 1 156.851 48.752 A 7.202 7.202 0 0 1 158.789 47.878 Q 159.697 47.61 160.79 47.493 A 17.019 17.019 0 0 1 162.601 47.402 Q 164.155 47.402 164.984 47.704 A 2.213 2.213 0 0 1 165.401 47.902 A 1.541 1.541 0 0 1 166.022 48.679 Q 166.201 49.14 166.201 49.802 A 7.037 7.037 0 0 1 166.129 50.693 Q 165.934 52.168 165.206 55.063 A 131.293 131.293 0 0 1 164.701 57.002 Q 164.013 59.752 163.515 62.029 A 111.739 111.739 0 0 0 163.101 64.002 Q 162.688 66.064 162.37 68.789 A 103.09 103.09 0 0 0 162.101 71.402 Q 164.724 64.566 167.853 59.751 A 39.284 39.284 0 0 1 169.501 57.402 Q 172.403 53.58 175.229 51.311 A 18.98 18.98 0 0 1 177.551 49.702 Q 180.488 47.991 183.066 47.553 A 10.337 10.337 0 0 1 184.801 47.402 A 9.357 9.357 0 0 1 187.373 47.724 Q 190.258 48.55 191.024 51.495 A 9.576 9.576 0 0 1 191.301 53.902 A 23.598 23.598 0 0 1 191.172 56.16 Q 190.768 60.272 189.101 68.002 A 209.257 209.257 0 0 0 188.361 71.526 Q 187.409 76.276 187.238 78.601 A 12.459 12.459 0 0 0 187.201 79.502 A 8.127 8.127 0 0 0 187.316 80.937 Q 187.766 83.43 189.972 83.5 A 4.066 4.066 0 0 0 190.101 83.502 A 4.196 4.196 0 0 0 191.565 83.212 Q 192.811 82.747 194.286 81.536 A 18.563 18.563 0 0 0 194.851 81.052 Q 197.138 79.015 200.704 74.868 A 168.379 168.379 0 0 0 200.895 74.645 A 49.902 49.902 0 0 1 200.46 70.537 A 68.156 68.156 0 0 1 200.301 65.802 Q 200.301 53.602 203.451 38.002 A 113.014 113.014 0 0 1 207.028 24.449 Q 209.308 17.649 212.343 11.956 A 69.439 69.439 0 0 1 212.751 11.202 Q 218.901 0.002 227.401 0.002 A 8.163 8.163 0 0 1 233.848 2.94 A 11.661 11.661 0 0 1 234.951 4.452 A 15.715 15.715 0 0 1 236.627 8.331 Q 237.701 12.014 237.701 17.202 Q 237.701 29.102 231.101 44.802 A 144.803 144.803 0 0 1 219.804 66.248 A 173.045 173.045 0 0 1 213.201 75.902 Q 213.831 79.592 215.19 81.378 A 5.382 5.382 0 0 0 215.501 81.752 A 5.299 5.299 0 0 0 219.144 83.481 A 7.266 7.266 0 0 0 219.701 83.502 A 12.07 12.07 0 0 0 224.326 82.629 A 11.432 11.432 0 0 0 226.901 81.152 Q 228.608 79.858 230.831 77.547 A 79.185 79.185 0 0 0 232.275 75.999 A 98.01 98.01 0 0 1 232.5 72.173 A 75.931 75.931 0 0 1 233.201 66.252 A 78.663 78.663 0 0 1 234.847 58.566 A 98.87 98.87 0 0 1 236.501 53.002 Q 237.207 50.884 238.312 49.613 A 5.856 5.856 0 0 1 239.301 48.702 A 5.57 5.57 0 0 1 240.787 47.962 Q 242.442 47.402 245.001 47.402 Q 246.744 47.402 247.64 47.841 A 2.096 2.096 0 0 1 248.051 48.102 Q 248.878 48.783 248.9 50.125 A 4.518 4.518 0 0 1 248.901 50.202 A 3.471 3.471 0 0 1 248.862 50.635 Q 248.725 51.644 248.098 54.341 A 198.933 198.933 0 0 1 247.801 55.602 A 124.01 124.01 0 0 0 246.926 59.022 Q 246.536 60.647 246.24 62.108 A 74.279 74.279 0 0 0 246.201 62.302 Q 245.401 66.402 244.801 70.152 A 63.407 63.407 0 0 0 244.485 72.364 Q 244.201 74.652 244.201 76.302 A 10.271 10.271 0 0 0 244.275 77.593 Q 244.595 80.102 246.301 80.102 Q 247.753 80.102 249.907 77.292 A 22.589 22.589 0 0 0 250.051 77.102 A 23.883 23.883 0 0 0 251.486 74.924 Q 252.871 72.579 254.361 69.152 A 89.066 89.066 0 0 0 254.851 68.002 Q 256.803 63.332 258.668 57.02 A 175.362 175.362 0 0 0 259.801 53.002 A 12.336 12.336 0 0 1 260.384 51.293 Q 260.762 50.418 261.246 49.756 A 5.37 5.37 0 0 1 262.251 48.702 A 5.254 5.254 0 0 1 263.846 47.866 Q 265.229 47.402 267.201 47.402 Q 268.988 47.402 269.93 47.764 A 2.402 2.402 0 0 1 270.401 48.002 A 1.919 1.919 0 0 1 271.195 49.134 Q 271.288 49.472 271.299 49.883 A 4.199 4.199 0 0 1 271.301 50.002 Q 271.301 52.502 268.701 67.202 L 266.101 83.302 Q 273.801 77.502 281.101 72.702 A 7.207 7.207 0 0 1 281.884 72.28 Q 282.713 71.902 283.401 71.902 A 2.186 2.186 0 0 1 285.137 72.711 A 3.273 3.273 0 0 1 285.451 73.152 Q 286.201 74.402 286.201 76.302 Q 286.201 77.799 285.904 78.872 A 4.943 4.943 0 0 1 285.501 79.902 Q 284.801 81.202 283.301 82.202 L 264.101 95.102 Q 261.617 108.631 258.13 118.379 A 75.028 75.028 0 0 1 254.151 127.652 A 32.613 32.613 0 0 1 250.757 132.974 Q 248.561 135.728 246.037 137.32 A 13.857 13.857 0 0 1 238.501 139.502 A 13.461 13.461 0 0 1 234.671 138.982 A 10.533 10.533 0 0 1 230.201 136.352 A 10.575 10.575 0 0 1 227.113 129.946 A 14.662 14.662 0 0 1 227.001 128.102 Q 227.001 123.402 229.151 118.502 A 26.719 26.719 0 0 1 231.066 114.962 Q 233.312 111.419 237.151 107.252 A 84.129 84.129 0 0 1 241.746 102.668 Q 246.679 98.083 253.701 92.702 L 254.001 90.402 Q 254.537 87.569 255.19 82.86 A 380.176 380.176 0 0 0 255.601 79.802 Q 254.155 85.008 251.872 88.411 A 17.233 17.233 0 0 1 250.001 90.752 Q 247.195 93.675 244.145 94.32 A 8.413 8.413 0 0 1 242.401 94.502 A 8.258 8.258 0 0 1 235.988 91.554 A 12.208 12.208 0 0 1 235.051 90.352 A 15.755 15.755 0 0 1 233.548 87.56 A 46.036 46.036 0 0 1 232.733 88.285 A 38.929 38.929 0 0 1 229.051 91.102 A 20.024 20.024 0 0 1 217.626 94.502 A 23.66 23.66 0 0 1 217.601 94.502 Q 209.863 94.502 205.643 88.317 A 19.197 19.197 0 0 1 204.551 86.502 A 33.079 33.079 0 0 1 203.729 84.806 A 47.961 47.961 0 0 1 200.466 88.026 A 39.649 39.649 0 0 1 196.551 91.102 Q 191.601 94.502 185.301 94.502 A 14.03 14.03 0 0 1 182.29 94.199 Q 179.368 93.557 177.601 91.552 A 9.508 9.508 0 0 1 175.713 88.138 Q 175.251 86.708 175.089 84.973 A 21.172 21.172 0 0 1 175.001 83.002 A 18.845 18.845 0 0 1 175.083 81.388 Q 175.315 78.741 176.203 74.033 A 187.798 187.798 0 0 1 176.401 73.002 A 135.129 135.129 0 0 0 176.939 70.263 Q 177.646 66.438 177.697 64.58 A 10.115 10.115 0 0 0 177.701 64.302 A 3.445 3.445 0 0 0 177.659 63.738 Q 177.492 62.737 176.66 62.703 A 1.452 1.452 0 0 0 176.601 62.702 Q 175.47 62.702 173.545 65.236 A 26.699 26.699 0 0 0 172.951 66.052 A 37.022 37.022 0 0 0 171.174 68.867 Q 169.682 71.464 168.151 74.902 Q 165.701 80.402 164.201 86.502 Q 163.355 90.117 162.301 91.928 A 5.867 5.867 0 0 1 161.651 92.852 Q 160.442 94.227 158.088 94.456 A 10.201 10.201 0 0 1 157.101 94.502 A 5.504 5.504 0 0 1 154.527 93.919 Q 153.32 93.292 152.492 91.991 A 8.457 8.457 0 0 1 151.751 90.502 A 16.809 16.809 0 0 1 151.002 87.872 Q 150.404 85.003 150.253 80.754 A 85.718 85.718 0 0 1 150.201 77.702 A 81.944 81.944 0 0 1 150.219 75.543 A 30.965 30.965 0 0 1 145.392 76.078 A 35.299 35.299 0 0 1 144.101 76.102 Q 139.701 76.102 135.801 74.902 A 192.82 192.82 0 0 1 131.322 81.813 A 223.807 223.807 0 0 1 129.401 84.602 Q 126.133 89.258 123.633 91.512 A 14.264 14.264 0 0 1 122.551 92.402 Q 119.701 94.502 116.101 94.502 A 8.16 8.16 0 0 1 113.478 94.101 A 6.551 6.551 0 0 1 110.051 91.402 A 10.899 10.899 0 0 1 108.927 89.091 Q 107.846 86.097 107.501 81.202 Z M 21.16 92.939 A 34.041 34.041 0 0 0 31.601 94.502 Q 43.201 94.502 52.751 88.202 A 39.787 39.787 0 0 0 60.945 80.993 A 47.597 47.597 0 0 0 67.851 70.302 A 54.576 54.576 0 0 0 72.099 57.382 A 70.784 70.784 0 0 0 73.401 43.502 A 46.788 46.788 0 0 0 72.653 34.932 A 33.783 33.783 0 0 0 69.201 24.952 A 34.451 34.451 0 0 0 68.387 23.532 A 28.428 28.428 0 0 0 57.851 13.202 A 30.532 30.532 0 0 0 52.242 10.764 A 34.041 34.041 0 0 0 41.801 9.202 Q 30.201 9.202 20.651 15.502 A 39.787 39.787 0 0 0 12.457 22.71 A 47.597 47.597 0 0 0 5.551 33.402 A 54.576 54.576 0 0 0 1.303 46.321 A 70.784 70.784 0 0 0 0.001 60.202 A 46.788 46.788 0 0 0 0.748 68.772 A 33.783 33.783 0 0 0 4.201 78.752 A 34.451 34.451 0 0 0 5.014 80.172 A 28.428 28.428 0 0 0 15.551 90.502 A 30.532 30.532 0 0 0 21.16 92.939 Z M 32.601 82.702 Q 40.401 82.702 46.351 77.902 A 27.422 27.422 0 0 0 52.714 70.437 A 36.909 36.909 0 0 0 55.501 64.552 Q 58.701 56.002 58.701 45.202 A 45.356 45.356 0 0 0 58.237 38.484 Q 57.715 35.011 56.608 32.212 A 19.069 19.069 0 0 0 53.701 27.152 A 16.588 16.588 0 0 0 48.077 22.588 A 16.427 16.427 0 0 0 40.801 21.002 Q 33.101 21.002 27.201 25.752 A 27.591 27.591 0 0 0 20.976 32.952 A 37.758 37.758 0 0 0 18.001 39.052 A 48.331 48.331 0 0 0 15.246 50.033 A 63.389 63.389 0 0 0 14.701 58.502 A 45.356 45.356 0 0 0 15.165 65.22 Q 15.686 68.693 16.793 71.492 A 19.069 19.069 0 0 0 19.701 76.552 A 16.588 16.588 0 0 0 25.325 81.116 A 16.427 16.427 0 0 0 32.601 82.702 Z M 221.019 15.499 A 55.086 55.086 0 0 0 220.001 18.202 Q 217.101 26.502 214.901 38.802 A 156.343 156.343 0 0 0 212.821 55.242 A 134.668 134.668 0 0 0 212.501 62.402 A 133.727 133.727 0 0 0 221.365 45.191 A 116.899 116.899 0 0 0 223.801 38.952 Q 227.552 28.458 227.953 19.6 A 46.382 46.382 0 0 0 228.001 17.502 A 31.509 31.509 0 0 0 227.918 15.114 Q 227.52 9.902 225.201 9.902 Q 223.312 9.902 221.019 15.499 Z M 244.794 124.742 A 36.133 36.133 0 0 0 245.201 124.002 Q 247.601 119.512 250.001 110.407 A 184.128 184.128 0 0 0 251.401 104.702 A 90.074 90.074 0 0 0 247.003 108.652 Q 242.623 112.874 240.251 116.552 Q 238.075 119.926 237.272 122.763 A 11.534 11.534 0 0 0 236.801 125.902 Q 236.801 127.602 237.451 128.702 Q 238.101 129.802 239.601 129.802 Q 241.936 129.802 244.794 124.742 Z" vector-effect="non-scaling-stroke"/></g></svg>